<svg width="82" height="33" viewBox="0 0 82 33" fill="none" xmlns="http://www.w3.org/2000/svg">
<path d="M35.0898 27.7061V17.2287H37.305V21.8483H37.4431L41.2136 17.2287H43.8687L39.9806 21.92L43.9148 27.7061H41.2647L38.3947 23.3985L37.305 24.7286V27.7061H35.0898ZM54.0596 22.4674C54.0596 23.6099 53.8431 24.5819 53.4099 25.3834C52.9802 26.1849 52.3935 26.7971 51.65 27.22C50.9099 27.6395 50.0777 27.8493 49.1535 27.8493C48.2224 27.8493 47.3868 27.6378 46.6467 27.2149C45.9066 26.792 45.3217 26.1798 44.8919 25.3783C44.4622 24.5768 44.2473 23.6065 44.2473 22.4674C44.2473 21.3248 44.4622 20.3528 44.8919 19.5513C45.3217 18.7498 45.9066 18.1393 46.6467 17.7198C47.3868 17.2969 48.2224 17.0854 49.1535 17.0854C50.0777 17.0854 50.9099 17.2969 51.65 17.7198C52.3935 18.1393 52.9802 18.7498 53.4099 19.5513C53.8431 20.3528 54.0596 21.3248 54.0596 22.4674ZM51.8137 22.4674C51.8137 21.7273 51.7029 21.1031 51.4812 20.5949C51.2629 20.0868 50.9543 19.7014 50.5552 19.4387C50.1562 19.1761 49.6889 19.0448 49.1535 19.0448C48.618 19.0448 48.1507 19.1761 47.7517 19.4387C47.3527 19.7014 47.0423 20.0868 46.8206 20.5949C46.6023 21.1031 46.4932 21.7273 46.4932 22.4674C46.4932 23.2075 46.6023 23.8316 46.8206 24.3398C47.0423 24.848 47.3527 25.2334 47.7517 25.496C48.1507 25.7586 48.618 25.8899 49.1535 25.8899C49.6889 25.8899 50.1562 25.7586 50.5552 25.496C50.9543 25.2334 51.2629 24.848 51.4812 24.3398C51.7029 23.8316 51.8137 23.2075 51.8137 22.4674ZM57.0026 17.2287L59.5349 25.189H59.6321L62.1696 17.2287H64.6253L61.0134 27.7061H58.1588L54.5418 17.2287H57.0026ZM68.1015 17.2287V27.7061H65.8863V17.2287H68.1015ZM79.5522 22.4674C79.5522 23.6099 79.3356 24.5819 78.9025 25.3834C78.4727 26.1849 77.8861 26.7971 77.1426 27.22C76.4025 27.6395 75.5703 27.8493 74.646 27.8493C73.715 27.8493 72.8794 27.6378 72.1393 27.2149C71.3992 26.792 70.8142 26.1798 70.3845 25.3783C69.9548 24.5768 69.7399 23.6065 69.7399 22.4674C69.7399 21.3248 69.9548 20.3528 70.3845 19.5513C70.8142 18.7498 71.3992 18.1393 72.1393 17.7198C72.8794 17.2969 73.715 17.0854 74.646 17.0854C75.5703 17.0854 76.4025 17.2969 77.1426 17.7198C77.8861 18.1393 78.4727 18.7498 78.9025 19.5513C79.3356 20.3528 79.5522 21.3248 79.5522 22.4674ZM77.3063 22.4674C77.3063 21.7273 77.1955 21.1031 76.9738 20.5949C76.7555 20.0868 76.4468 19.7014 76.0478 19.4387C75.6488 19.1761 75.1815 19.0448 74.646 19.0448C74.1106 19.0448 73.6433 19.1761 73.2443 19.4387C72.8452 19.7014 72.5349 20.0868 72.3132 20.5949C72.0949 21.1031 71.9858 21.7273 71.9858 22.4674C71.9858 23.2075 72.0949 23.8316 72.3132 24.3398C72.5349 24.848 72.8452 25.2334 73.2443 25.496C73.6433 25.7586 74.1106 25.8899 74.646 25.8899C75.1815 25.8899 75.6488 25.7586 76.0478 25.496C76.4468 25.2334 76.7555 24.848 76.9738 24.3398C77.1955 23.8316 77.3063 23.2075 77.3063 22.4674Z" fill="#111827"/>
<path fill-rule="evenodd" clip-rule="evenodd" d="M30.3255 0.332031C30.3255 7.33114 25.5714 13.1897 19.3046 14.5463C18.4162 14.7504 17.4918 14.8465 16.5434 14.8465H0V0.332031H11.0329V10.0083H8.27168V3.23732H2.76123V11.9532H16.5434C17.4918 11.9532 18.4162 11.8211 19.3046 11.581C23.1583 10.5246 26.2197 7.30713 27.2281 3.23732H19.3046V10.0083H16.5434V0.332031H30.3255Z" fill="#FF4800"/>
<path fill-rule="evenodd" clip-rule="evenodd" d="M19.3046 29.3731H27.2281C26.2076 25.3153 23.1583 22.0859 19.3046 21.0294C18.4282 20.7893 17.5038 20.6572 16.5434 20.6572H2.76123V29.3731H8.27168V22.9863H11.0329V32.2784H0V17.752H16.5434C17.4918 17.752 18.4162 17.848 19.3046 18.0521C25.5714 19.4087 30.3255 25.2913 30.3255 32.2784H16.5434V23.2504H19.3046V29.3731Z" fill="#FF4800"/>
<path d="M11.033 8.73584H8.27173V24.2587H11.033V8.73584Z" fill="#FF4800"/>
<path d="M19.3046 9.2041H16.5433V24.2588H19.3046V9.2041Z" fill="#FF4800"/>
<path d="M2.76123 7.59521H0V24.2586H2.76123V7.59521Z" fill="#FF4800"/>
</svg>
